# Blender 4.2.2 LTS
# www.blender.org
mtllib jarra.mtl
o Círculo
v 0.000000 0.000000 -1.000000
v -0.195090 0.000000 -0.980785
v -0.382683 0.000000 -0.923880
v -0.555570 0.000000 -0.831470
v -0.707107 0.000000 -0.707107
v -0.831470 0.000000 -0.555570
v -0.923880 0.000000 -0.382683
v -0.980785 0.000000 -0.195090
v -1.000000 0.000000 0.000000
v -0.980785 0.000000 0.195090
v -0.923880 0.000000 0.382683
v -0.831470 0.000000 0.555570
v -0.707107 0.000000 0.707107
v -0.555570 0.000000 0.831470
v -0.382683 0.000000 0.923880
v -0.195090 0.000000 0.980785
v 0.000000 0.000000 1.000000
v 0.195090 0.000000 0.980785
v 0.382683 0.000000 0.923880
v 0.555570 0.000000 0.831470
v 0.707107 0.000000 0.707107
v 0.831470 0.000000 0.555570
v 0.923880 0.000000 0.382683
v 0.980785 0.000000 0.195090
v 1.000000 0.000000 0.000000
v 0.980785 0.000000 -0.195090
v 0.923880 0.000000 -0.382683
v 0.831470 0.000000 -0.555570
v 0.707107 0.000000 -0.707107
v 0.555570 0.000000 -0.831470
v 0.382683 0.000000 -0.923880
v 0.195090 0.000000 -0.980785
v -0.000000 4.713230 -0.787304
v -0.153595 4.713230 -0.772176
v -0.301288 5.072507 -0.727374
v -0.437403 5.072507 -0.654620
v -0.556708 5.072507 -0.556708
v -0.654620 5.072507 -0.437403
v -0.727374 5.072507 -0.301288
v -0.772176 5.072507 -0.153595
v -0.787304 5.072507 -0.000000
v -0.772176 5.072507 0.153595
v -0.727374 5.072507 0.301288
v -0.654620 5.072507 0.437403
v -0.556708 5.072507 0.556708
v -0.437403 5.072507 0.654620
v -0.301288 5.072507 0.727374
v -0.153595 5.072507 0.772176
v -0.000000 5.072507 0.787304
v 0.153595 5.072507 0.772176
v 0.301288 5.072507 0.727374
v 0.437403 5.072507 0.654620
v 0.556708 5.072507 0.556708
v 0.654620 5.072507 0.437403
v 0.727374 5.072507 0.301288
v 0.772176 5.072507 0.153595
v 0.787304 5.072507 -0.000000
v 0.772176 5.072507 -0.153595
v 0.727374 5.072507 -0.301288
v 0.654620 5.072507 -0.437403
v 0.556708 5.072507 -0.556708
v 0.437403 5.072507 -0.654620
v 0.301288 4.713230 -0.727374
v 0.153595 4.713230 -0.772176
v 1.051964 1.520843 -0.702900
v 0.894621 1.520843 -0.894621
v -0.484166 1.520843 1.168879
v -0.246826 1.520843 1.240876
v -0.246826 1.520843 -1.240876
v -0.484166 1.520843 -1.168879
v 0.702900 1.520843 -1.051964
v -0.000000 1.520843 1.265186
v -0.702900 1.520843 -1.051964
v 0.484166 1.520843 -1.168879
v 0.246826 1.520843 1.240876
v -0.894621 1.520843 -0.894621
v 0.246826 1.520843 -1.240876
v 0.484166 1.520843 1.168879
v -1.051964 1.520843 -0.702900
v -0.000000 1.520843 -1.265186
v 0.702900 1.520843 1.051964
v -1.168879 1.520843 -0.484166
v 0.894621 1.520843 0.894621
v -1.240876 1.520843 -0.246826
v 1.051964 1.520843 0.702900
v -1.265186 1.520843 0.000000
v 1.168879 1.520843 0.484166
v -1.240876 1.520843 0.246826
v 1.240876 1.520843 0.246826
v -1.168879 1.520843 0.484166
v 1.265186 1.520843 0.000000
v -1.051964 1.520843 0.702900
v 1.240876 1.520843 -0.246826
v -0.894621 1.520843 0.894621
v 1.168879 1.520843 -0.484166
v -0.702900 1.520843 1.051964
v 0.229484 5.031379 -1.091792
v 0.153595 5.038021 -1.136594
v 0.066419 5.051304 -1.151722
v -0.000088 5.048791 -1.102898
v 0.345673 5.071961 -0.806009
v -0.207558 5.067128 -0.854710
v 0.869547 3.151373 -0.581013
v -0.400209 3.145622 0.966189
v -0.204025 2.986433 -1.025701
v 0.739489 3.151373 -0.739489
v -0.204025 3.143502 1.025701
v -0.400209 3.151373 -0.966189
v 0.581013 3.151373 -0.869547
v -0.000000 3.145388 1.045796
v -0.581013 3.151373 -0.869547
v 0.400209 2.986433 -0.966189
v 0.204025 3.149296 1.025701
v -0.739489 3.151373 -0.739489
v 0.204025 2.986433 -1.025701
v 0.400209 3.151368 0.966189
v -0.869547 3.151373 -0.581013
v -0.000000 2.986433 -1.045796
v 0.581013 3.151373 0.869547
v -0.966189 3.151373 -0.400209
v 0.739489 3.151373 0.739489
v -1.025701 3.151373 -0.204025
v 0.869547 3.151373 0.581013
v -1.045796 3.151373 -0.000000
v 0.966189 3.151373 0.400209
v -1.025701 3.151373 0.204025
v 1.025701 3.151373 0.204025
v -0.966189 3.151373 0.400209
v 1.045796 3.151373 -0.000000
v -0.869547 3.151373 0.581013
v 1.025701 3.151373 -0.204025
v -0.739489 3.151373 0.739489
v 0.966189 3.151373 -0.400209
v -0.581013 3.149731 0.869547
v 0.791874 0.687504 -0.791874
v -0.218477 0.687504 1.098360
v -0.428559 0.687504 -1.034633
v 0.622171 0.687504 -0.931145
v -0.000000 0.687504 1.119879
v -0.622171 0.687504 -0.931145
v 0.428559 0.687504 -1.034633
v 0.218477 0.687504 1.098360
v -0.791874 0.687504 -0.791874
v 0.218477 0.687504 -1.098360
v 0.428559 0.687504 1.034633
v -0.931145 0.687504 -0.622171
v -0.000000 0.687504 -1.119879
v 0.622171 0.687504 0.931145
v -1.034633 0.687504 -0.428559
v 0.791874 0.687504 0.791874
v -1.098360 0.687504 -0.218477
v 0.931145 0.687504 0.622171
v -1.119879 0.687504 0.000000
v 1.034633 0.687504 0.428559
v -1.098360 0.687504 0.218477
v 1.098360 0.687504 0.218477
v -1.034633 0.687504 0.428559
v 1.119879 0.687504 0.000000
v -0.931145 0.687504 0.622171
v 1.098360 0.687504 -0.218477
v -0.791874 0.687504 0.791874
v 1.034633 0.687504 -0.428559
v -0.622171 0.687504 0.931145
v 0.931145 0.687504 -0.622171
v -0.428559 0.687504 1.034633
v -0.218477 0.687504 -1.098360
v 0.751077 0.356625 -0.751077
v -0.207222 0.356625 1.041774
v -0.406480 0.356625 -0.981330
v 0.590118 0.356625 -0.883174
v -0.000000 0.356625 1.062184
v -0.590118 0.356625 -0.883174
v 0.406480 0.356625 -0.981330
v 0.207222 0.356625 1.041774
v -0.751077 0.356625 -0.751077
v 0.207222 0.356625 -1.041774
v 0.406480 0.356625 0.981330
v -0.883174 0.356625 -0.590118
v -0.000000 0.356625 -1.062184
v 0.590118 0.356625 0.883174
v -0.981330 0.356625 -0.406480
v 0.751077 0.356625 0.751077
v -1.041774 0.356625 -0.207222
v 0.883174 0.356625 0.590118
v -1.062184 0.356625 0.000000
v 0.981330 0.356625 0.406480
v -1.041774 0.356625 0.207222
v 1.041774 0.356625 0.207222
v -0.981330 0.356625 0.406480
v 1.062184 0.356625 0.000000
v -0.883174 0.356625 0.590118
v 1.041774 0.356625 -0.207222
v -0.751077 0.356625 0.751077
v 0.981330 0.356625 -0.406480
v -0.590118 0.356625 0.883174
v 0.883174 0.356625 -0.590118
v -0.406480 0.356625 0.981330
v -0.207222 0.356625 -1.041774
v -0.218477 1.577523 2.147785
v -0.000000 1.577523 2.169303
v -0.428559 1.577523 2.084057
v -0.207222 1.246643 2.091199
v -0.000000 1.246643 2.111609
v -0.406480 1.246643 2.030754
v -0.218477 3.364201 2.061440
v -0.000000 3.364201 2.082958
v -0.428559 3.364201 1.997712
v -0.207222 3.082168 2.004854
v -0.000000 3.082168 2.025264
v -0.406480 3.082168 1.944409
v 0.835610 3.454725 -0.558337
v -0.384589 3.450481 0.928480
v -0.196062 3.259098 -0.985669
v 0.710628 3.454725 -0.710628
v -0.196062 3.448748 0.985669
v -0.384589 3.454725 -0.928480
v 0.558337 3.454725 -0.835610
v -0.000000 3.449686 1.004979
v -0.558337 3.454725 -0.835610
v 0.384589 3.259098 -0.928480
v 0.196062 3.452280 0.985669
v -0.710628 3.454725 -0.710628
v 0.196062 3.259098 -0.985669
v 0.384589 3.454667 0.928480
v -0.835610 3.454725 -0.558337
v -0.000000 3.259098 -1.004979
v 0.558337 3.454725 0.835610
v -0.928480 3.454725 -0.384589
v 0.710628 3.454725 0.710628
v -0.985669 3.454725 -0.196062
v 0.835610 3.454725 0.558337
v -1.004979 3.454725 -0.000000
v 0.928480 3.454725 0.384589
v -0.985669 3.454725 0.196062
v 0.985669 3.454725 0.196062
v -0.928480 3.454725 0.384589
v 1.004979 3.454725 -0.000000
v -0.835610 3.454725 0.558337
v 0.985669 3.454725 -0.196062
v -0.710628 3.454725 0.710628
v 0.928480 3.454725 -0.384589
v -0.558337 3.453722 0.835610
v -0.076945 3.163364 1.170990
v -0.364674 2.940353 1.072917
v -0.380302 3.161124 1.110648
v -0.231595 3.162947 1.155758
v -0.151680 3.265049 1.743172
v -0.244336 3.264226 1.734046
v -0.333432 3.260631 1.707019
v -0.324068 3.146806 1.684414
v -0.537740 0.713561 1.482440
v -0.205282 0.713561 1.583290
v 0.140462 1.265626 1.713605
v -0.224062 1.265626 1.677702
v -0.574578 1.265626 1.571374
v 0.140462 0.713561 1.617343
v -0.406480 2.253571 1.987410
v -0.207222 2.253571 2.047854
v -0.000000 2.253571 2.068264
v -0.000000 2.575887 2.125958
v -0.218477 2.575884 2.104440
v -0.428559 2.575875 2.040713
v -0.062317 3.143461 1.058995
v -0.229102 3.143124 1.042568
v -0.389476 3.141647 0.993919
v -0.372621 2.899943 0.953228
vn -0.7662 -0.1327 0.6288
vn 0.2871 -0.1323 -0.9487
vn 0.0746 -0.1364 0.9878
vn -0.6288 -0.1327 0.7662
vn 0.0975 -0.1323 -0.9864
vn 0.4672 -0.1327 0.8741
vn -0.2659 -0.1364 0.9543
vn -0.0962 -0.1324 -0.9865
vn 0.6288 -0.1327 0.7662
vn -0.2871 -0.1473 0.9465
vn -0.2869 -0.1326 -0.9487
vn 0.7662 -0.1327 0.6288
vn -0.0969 -0.1473 0.9843
vn -0.4672 -0.1327 -0.8741
vn 0.8741 -0.1327 0.4672
vn -0.6288 -0.1327 -0.7662
vn 0.9485 -0.1327 0.2877
vn -0.7662 -0.1327 -0.6288
vn 0.9864 -0.1327 0.0971
vn -0.8741 -0.1327 -0.4672
vn 0.9864 -0.1327 -0.0971
vn -0.9485 -0.1327 -0.2877
vn 0.9485 -0.1327 -0.2877
vn -0.9864 -0.1327 -0.0971
vn 0.8741 -0.1327 -0.4672
vn -0.9864 -0.1327 0.0971
vn 0.7662 -0.1327 -0.6288
vn -0.9485 -0.1327 0.2877
vn 0.6285 -0.1327 -0.7664
vn -0.8741 -0.1327 0.4672
vn 0.4662 -0.1325 -0.8747
vn 0.0969 -0.1473 0.9843
vn 0.0966 0.1710 0.9805
vn 0.4645 0.1710 -0.8689
vn -0.8689 0.1710 0.4645
vn 0.6251 0.1710 -0.7616
vn -0.9429 0.1710 0.2860
vn 0.7616 0.1710 -0.6251
vn -0.9805 0.1710 0.0966
vn 0.8689 0.1710 -0.4645
vn -0.9805 0.1710 -0.0966
vn 0.9429 0.1710 -0.2860
vn -0.9429 0.1710 -0.2860
vn 0.9805 0.1710 -0.0966
vn -0.8689 0.1710 -0.4645
vn 0.9805 0.1710 0.0966
vn -0.7616 0.1710 -0.6251
vn 0.9429 0.1710 0.2860
vn -0.6251 0.1710 -0.7616
vn 0.8689 0.1710 0.4645
vn -0.4645 0.1710 -0.8689
vn -0.0966 0.1710 0.9805
vn 0.7616 0.1710 0.6251
vn -0.2860 0.1710 -0.9429
vn -0.2860 0.1710 0.9428
vn 0.6251 0.1710 0.7616
vn -0.0966 0.1710 -0.9805
vn -0.4645 0.1710 0.8689
vn 0.4645 0.1710 0.8689
vn 0.0966 0.1710 -0.9805
vn -0.6251 0.1710 0.7616
vn 0.2860 0.1710 0.9429
vn 0.2860 0.1710 -0.9429
vn -0.7616 0.1710 0.6251
vn 0.7621 0.2550 0.5951
vn -0.8921 0.1993 0.4055
vn -0.0433 0.7411 0.6700
vn 0.1997 0.6713 0.7137
vn -0.2413 0.7158 0.6552
vn -0.0000 1.0000 -0.0000
vn 0.4661 -0.1330 -0.8747
vn 0.6284 -0.1328 -0.7665
vn -0.2871 -0.1328 -0.9486
vn -0.0960 -0.1330 -0.9864
vn -0.4214 -0.1395 0.8961
vn 0.0977 -0.1333 -0.9863
vn 0.2385 -0.1395 0.9611
vn 0.2871 -0.1333 -0.9486
vn -0.0544 -0.8317 0.5525
vn 0.2144 0.6742 -0.7068
vn -0.2860 0.1710 0.9429
vn 1.0000 -0.0000 -0.0000
vn 0.2899 -0.0496 -0.9558
vn 0.9342 0.1166 -0.3370
vn 0.0711 0.6882 -0.7220
vn -0.9423 0.0575 -0.3298
vn -0.1658 -0.8208 0.5466
vn -0.9520 -0.0170 -0.3057
vn 0.0807 0.9494 -0.3036
vn -0.0979 0.0542 0.9937
vn -0.9528 -0.0161 -0.3032
vn 0.0979 -0.0516 -0.9939
vn -0.2899 0.0521 0.9556
vn 0.4651 -0.1323 -0.8753
vn 0.6281 -0.1326 -0.7667
vn -0.2863 -0.1328 -0.9489
vn -0.0950 -0.1326 -0.9866
vn -0.3535 -0.1386 0.9251
vn 0.0981 -0.1321 -0.9864
vn 0.1663 -0.1386 0.9763
vn 0.2865 -0.1320 -0.9489
vn 0.0289 0.9852 -0.1692
vn -0.9913 -0.0912 0.0949
vn 0.0121 0.9849 -0.1728
vn 0.1911 0.2004 -0.9609
vn 0.0263 0.9560 -0.2923
vn -0.2092 -0.6932 0.6897
vn -0.9606 -0.0477 0.2737
vn 0.0541 0.8336 -0.5497
vn 0.9715 0.0269 0.2353
vn 0.1648 0.8233 -0.5432
vn -0.0694 -0.7065 0.7043
vn -0.2900 0.0415 0.9561
vn 0.0979 -0.0428 -0.9943
vn -0.9503 -0.0135 -0.3112
vn -0.0979 0.0432 0.9943
vn 0.2900 -0.0412 -0.9561
vn -0.9919 -0.0855 0.0935
vn 0.0409 0.9847 -0.1695
vn 0.0147 0.9849 -0.1726
vt 0.000000 0.000000
s 0
f 214/1/1 211/1/1 60/1/1 61/1/1
f 215/1/2 212/1/2 47/1/2 48/1/2
f 216/1/3 213/1/3 34/1/3 35/1/3
f 217/1/4 214/1/4 61/1/4 62/1/4
f 218/1/5 215/1/5 48/1/5 49/1/5
f 219/1/6 216/1/6 35/1/6 36/1/6
f 220/1/7 217/1/7 62/1/7 63/1/7
f 221/1/8 218/1/8 49/1/8 50/1/8
f 222/1/9 219/1/9 36/1/9 37/1/9
f 223/1/10 220/1/10 63/1/10 64/1/10
f 224/1/11 221/1/11 50/1/11 51/1/11
f 225/1/12 222/1/12 37/1/12 38/1/12
f 226/1/13 223/1/13 64/1/13 33/1/13
f 227/1/14 224/1/14 51/1/14 52/1/14
f 228/1/15 225/1/15 38/1/15 39/1/15
f 229/1/16 227/1/16 52/1/16 53/1/16
f 230/1/17 228/1/17 39/1/17 40/1/17
f 231/1/18 229/1/18 53/1/18 54/1/18
f 232/1/19 230/1/19 40/1/19 41/1/19
f 233/1/20 231/1/20 54/1/20 55/1/20
f 234/1/21 232/1/21 41/1/21 42/1/21
f 235/1/22 233/1/22 55/1/22 56/1/22
f 236/1/23 234/1/23 42/1/23 43/1/23
f 237/1/24 235/1/24 56/1/24 57/1/24
f 238/1/25 236/1/25 43/1/25 44/1/25
f 239/1/26 237/1/26 57/1/26 58/1/26
f 240/1/27 238/1/27 44/1/27 45/1/27
f 241/1/28 239/1/28 58/1/28 59/1/28
f 242/1/29 240/1/29 45/1/29 46/1/29
f 211/1/30 241/1/30 59/1/30 60/1/30
f 212/1/31 242/1/31 46/1/31 47/1/31
f 213/1/32 226/1/32 33/1/32 34/1/32
f 166/1/33 147/1/33 80/1/33 69/1/33
f 165/1/34 163/1/34 96/1/34 67/1/34
f 164/1/35 162/1/35 95/1/35 65/1/35
f 163/1/36 161/1/36 94/1/36 96/1/36
f 162/1/37 160/1/37 93/1/37 95/1/37
f 161/1/38 159/1/38 92/1/38 94/1/38
f 160/1/39 158/1/39 91/1/39 93/1/39
f 159/1/40 157/1/40 90/1/40 92/1/40
f 158/1/41 156/1/41 89/1/41 91/1/41
f 157/1/42 155/1/42 88/1/42 90/1/42
f 156/1/43 154/1/43 87/1/43 89/1/43
f 155/1/44 153/1/44 86/1/44 88/1/44
f 154/1/45 152/1/45 85/1/45 87/1/45
f 153/1/46 151/1/46 84/1/46 86/1/46
f 152/1/47 150/1/47 83/1/47 85/1/47
f 151/1/48 149/1/48 82/1/48 84/1/48
f 150/1/49 148/1/49 81/1/49 83/1/49
f 149/1/50 146/1/50 79/1/50 82/1/50
f 148/1/51 145/1/51 78/1/51 81/1/51
f 147/1/52 144/1/52 77/1/52 80/1/52
f 146/1/53 143/1/53 76/1/53 79/1/53
f 145/1/54 142/1/54 75/1/54 78/1/54
f 144/1/55 141/1/55 74/1/55 77/1/55
f 143/1/56 140/1/56 73/1/56 76/1/56
f 142/1/57 139/1/57 72/1/57 75/1/57
f 141/1/58 138/1/58 71/1/58 74/1/58
f 140/1/59 137/1/59 70/1/59 73/1/59
f 139/1/60 136/1/60 68/1/60 72/1/60
f 138/1/61 135/1/61 66/1/61 71/1/61
f 137/1/62 166/1/62 69/1/62 70/1/62
f 136/1/63 165/1/63 67/1/63 68/1/63
f 135/1/64 164/1/64 65/1/64 66/1/64
f 35/1/65 34/1/65 100/1/65 102/1/65
f 63/1/66 62/1/66 101/1/66 97/1/66
f 33/1/67 64/1/67 98/1/67 99/1/67
f 34/1/68 33/1/68 99/1/68 100/1/68
f 64/1/69 63/1/69 97/1/69 98/1/69
f 2/1/70 3/1/70 4/1/70 5/1/70 6/1/70 7/1/70 8/1/70 9/1/70 10/1/70 11/1/70 12/1/70 13/1/70 14/1/70 15/1/70 16/1/70 17/1/70 18/1/70 19/1/70 20/1/70 21/1/70 22/1/70 23/1/70 24/1/70 25/1/70 26/1/70 27/1/70 28/1/70 29/1/70 30/1/70 31/1/70 32/1/70 1/1/70
f 69/1/32 80/1/32 118/1/32 105/1/32
f 67/1/71 96/1/71 134/1/71 104/1/71
f 65/1/30 95/1/30 133/1/30 103/1/30
f 96/1/72 94/1/72 132/1/72 134/1/72
f 95/1/28 93/1/28 131/1/28 133/1/28
f 94/1/27 92/1/27 130/1/27 132/1/27
f 93/1/26 91/1/26 129/1/26 131/1/26
f 92/1/25 90/1/25 128/1/25 130/1/25
f 91/1/24 89/1/24 127/1/24 129/1/24
f 90/1/23 88/1/23 126/1/23 128/1/23
f 89/1/22 87/1/22 125/1/22 127/1/22
f 88/1/21 86/1/21 124/1/21 126/1/21
f 87/1/20 85/1/20 123/1/20 125/1/20
f 86/1/19 84/1/19 122/1/19 124/1/19
f 85/1/18 83/1/18 121/1/18 123/1/18
f 84/1/17 82/1/17 120/1/17 122/1/17
f 83/1/16 81/1/16 119/1/16 121/1/16
f 82/1/15 79/1/15 117/1/15 120/1/15
f 81/1/14 78/1/14 116/1/14 119/1/14
f 80/1/13 77/1/13 115/1/13 118/1/13
f 79/1/12 76/1/12 114/1/12 117/1/12
f 78/1/73 75/1/73 113/1/73 116/1/73
f 77/1/10 74/1/10 112/1/10 115/1/10
f 76/1/9 73/1/9 111/1/9 114/1/9
f 75/1/74 72/1/74 110/1/74 113/1/74
f 74/1/75 71/1/75 109/1/75 112/1/75
f 73/1/6 70/1/6 108/1/6 111/1/6
f 72/1/76 68/1/76 107/1/76 110/1/76
f 71/1/4 66/1/4 106/1/4 109/1/4
f 70/1/77 69/1/77 105/1/77 108/1/77
f 68/1/78 67/1/78 104/1/78 107/1/78
f 66/1/1 65/1/1 103/1/1 106/1/1
f 167/1/64 196/1/64 164/1/64 135/1/64
f 254/1/79 253/1/79 200/1/79 199/1/79
f 169/1/62 198/1/62 166/1/62 137/1/62
f 170/1/61 167/1/61 135/1/61 138/1/61
f 252/1/80 251/1/80 204/1/80 202/1/80
f 172/1/59 169/1/59 137/1/59 140/1/59
f 173/1/58 170/1/58 138/1/58 141/1/58
f 174/1/57 171/1/57 139/1/57 142/1/57
f 175/1/56 172/1/56 140/1/56 143/1/56
f 176/1/81 173/1/81 141/1/81 144/1/81
f 177/1/54 174/1/54 142/1/54 145/1/54
f 178/1/53 175/1/53 143/1/53 146/1/53
f 179/1/52 176/1/52 144/1/52 147/1/52
f 180/1/51 177/1/51 145/1/51 148/1/51
f 181/1/50 178/1/50 146/1/50 149/1/50
f 182/1/49 180/1/49 148/1/49 150/1/49
f 183/1/48 181/1/48 149/1/48 151/1/48
f 184/1/47 182/1/47 150/1/47 152/1/47
f 185/1/46 183/1/46 151/1/46 153/1/46
f 186/1/45 184/1/45 152/1/45 154/1/45
f 187/1/44 185/1/44 153/1/44 155/1/44
f 188/1/43 186/1/43 154/1/43 156/1/43
f 189/1/42 187/1/42 155/1/42 157/1/42
f 190/1/41 188/1/41 156/1/41 158/1/41
f 191/1/40 189/1/40 157/1/40 159/1/40
f 192/1/39 190/1/39 158/1/39 160/1/39
f 193/1/38 191/1/38 159/1/38 161/1/38
f 194/1/37 192/1/37 160/1/37 162/1/37
f 195/1/36 193/1/36 161/1/36 163/1/36
f 196/1/35 194/1/35 162/1/35 164/1/35
f 197/1/34 195/1/34 163/1/34 165/1/34
f 198/1/33 179/1/33 147/1/33 166/1/33
f 2/1/33 1/1/33 179/1/33 198/1/33
f 15/1/34 14/1/34 195/1/34 197/1/34
f 28/1/35 27/1/35 194/1/35 196/1/35
f 14/1/36 13/1/36 193/1/36 195/1/36
f 27/1/37 26/1/37 192/1/37 194/1/37
f 13/1/38 12/1/38 191/1/38 193/1/38
f 26/1/39 25/1/39 190/1/39 192/1/39
f 12/1/40 11/1/40 189/1/40 191/1/40
f 25/1/41 24/1/41 188/1/41 190/1/41
f 11/1/42 10/1/42 187/1/42 189/1/42
f 24/1/43 23/1/43 186/1/43 188/1/43
f 10/1/44 9/1/44 185/1/44 187/1/44
f 23/1/45 22/1/45 184/1/45 186/1/45
f 9/1/46 8/1/46 183/1/46 185/1/46
f 22/1/47 21/1/47 182/1/47 184/1/47
f 8/1/48 7/1/48 181/1/48 183/1/48
f 21/1/49 20/1/49 180/1/49 182/1/49
f 7/1/50 6/1/50 178/1/50 181/1/50
f 20/1/51 19/1/51 177/1/51 180/1/51
f 1/1/52 32/1/52 176/1/52 179/1/52
f 6/1/53 5/1/53 175/1/53 178/1/53
f 19/1/54 18/1/54 174/1/54 177/1/54
f 32/1/81 31/1/81 173/1/81 176/1/81
f 5/1/56 4/1/56 172/1/56 175/1/56
f 18/1/57 17/1/57 171/1/57 174/1/57
f 31/1/58 30/1/58 170/1/58 173/1/58
f 4/1/59 3/1/59 169/1/59 172/1/59
f 17/1/60 16/1/60 168/1/60 171/1/60
f 30/1/61 29/1/61 167/1/61 170/1/61
f 3/1/62 2/1/62 198/1/62 169/1/62
f 16/1/63 15/1/63 197/1/63 168/1/63
f 29/1/64 28/1/64 196/1/64 167/1/64
f 260/1/82 259/1/82 209/1/82 206/1/82
f 258/1/83 257/1/83 210/1/83 208/1/83
f 251/1/84 255/1/84 201/1/84 204/1/84
f 256/1/85 252/1/85 202/1/85 203/1/85
f 253/1/86 256/1/86 203/1/86 200/1/86
f 255/1/87 254/1/87 199/1/87 201/1/87
f 210/1/88 207/1/88 249/1/88 250/1/88
f 207/1/89 205/1/89 248/1/89 249/1/89
f 261/1/90 260/1/90 206/1/90 205/1/90
f 257/1/91 262/1/91 207/1/91 210/1/91
f 259/1/92 258/1/92 208/1/92 209/1/92
f 262/1/93 261/1/93 205/1/93 207/1/93
f 105/1/32 118/1/32 226/1/32 213/1/32
f 104/1/94 134/1/94 242/1/94 212/1/94
f 103/1/30 133/1/30 241/1/30 211/1/30
f 134/1/95 132/1/95 240/1/95 242/1/95
f 133/1/28 131/1/28 239/1/28 241/1/28
f 132/1/27 130/1/27 238/1/27 240/1/27
f 131/1/26 129/1/26 237/1/26 239/1/26
f 130/1/25 128/1/25 236/1/25 238/1/25
f 129/1/24 127/1/24 235/1/24 237/1/24
f 128/1/23 126/1/23 234/1/23 236/1/23
f 127/1/22 125/1/22 233/1/22 235/1/22
f 126/1/21 124/1/21 232/1/21 234/1/21
f 125/1/20 123/1/20 231/1/20 233/1/20
f 124/1/19 122/1/19 230/1/19 232/1/19
f 123/1/18 121/1/18 229/1/18 231/1/18
f 122/1/17 120/1/17 228/1/17 230/1/17
f 121/1/16 119/1/16 227/1/16 229/1/16
f 120/1/15 117/1/15 225/1/15 228/1/15
f 119/1/14 116/1/14 224/1/14 227/1/14
f 118/1/13 115/1/13 223/1/13 226/1/13
f 117/1/12 114/1/12 222/1/12 225/1/12
f 116/1/96 113/1/96 221/1/96 224/1/96
f 115/1/10 112/1/10 220/1/10 223/1/10
f 114/1/9 111/1/9 219/1/9 222/1/9
f 113/1/97 110/1/97 218/1/97 221/1/97
f 112/1/98 109/1/98 217/1/98 220/1/98
f 111/1/6 108/1/6 216/1/6 219/1/6
f 110/1/99 107/1/99 215/1/99 218/1/99
f 109/1/4 106/1/4 214/1/4 217/1/4
f 108/1/100 105/1/100 213/1/100 216/1/100
f 107/1/101 104/1/101 212/1/101 215/1/101
f 106/1/1 103/1/1 211/1/1 214/1/1
f 249/1/102 248/1/102 246/1/102 245/1/102
f 250/1/103 249/1/103 245/1/103 244/1/103
f 248/1/104 247/1/104 243/1/104 246/1/104
f 208/1/105 210/1/105 207/1/105 205/1/105 206/1/105 209/1/105
f 205/1/106 206/1/106 247/1/106 248/1/106
f 165/1/107 136/1/107 254/1/107 255/1/107
f 139/1/108 171/1/108 256/1/108 253/1/108
f 171/1/109 168/1/109 252/1/109 256/1/109
f 197/1/110 165/1/110 255/1/110 251/1/110
f 168/1/111 197/1/111 251/1/111 252/1/111
f 136/1/112 139/1/112 253/1/112 254/1/112
f 201/1/113 199/1/113 261/1/113 262/1/113
f 203/1/114 202/1/114 258/1/114 259/1/114
f 204/1/115 201/1/115 262/1/115 257/1/115
f 199/1/116 200/1/116 260/1/116 261/1/116
f 202/1/117 204/1/117 257/1/117 258/1/117
f 200/1/82 203/1/82 259/1/82 260/1/82
f 244/1/118 245/1/118 265/1/118 266/1/118
f 245/1/119 246/1/119 264/1/119 265/1/119
f 246/1/120 243/1/120 263/1/120 264/1/120
