# Blender 4.2.2 LTS
# www.blender.org
mtllib plato.mtl
o Círculo
v 0.000000 0.000000 -1.000000
v -0.195090 0.000000 -0.980785
v -0.382683 0.000000 -0.923880
v -0.555570 0.000000 -0.831470
v -0.707107 0.000000 -0.707107
v -0.831470 0.000000 -0.555570
v -0.923880 0.000000 -0.382683
v -0.980785 0.000000 -0.195090
v -1.000000 0.000000 0.000000
v -0.980785 0.000000 0.195090
v -0.923880 0.000000 0.382683
v -0.831470 0.000000 0.555570
v -0.707107 0.000000 0.707107
v -0.555570 0.000000 0.831470
v -0.382683 0.000000 0.923880
v -0.195090 0.000000 0.980785
v 0.000000 0.000000 1.000000
v 0.195090 0.000000 0.980785
v 0.382683 0.000000 0.923880
v 0.555570 0.000000 0.831470
v 0.707107 0.000000 0.707107
v 0.831470 0.000000 0.555570
v 0.923880 0.000000 0.382683
v 0.980785 0.000000 0.195090
v 1.000000 0.000000 0.000000
v 0.980785 0.000000 -0.195090
v 0.923880 0.000000 -0.382683
v 0.831470 0.000000 -0.555570
v 0.707107 0.000000 -0.707107
v 0.555570 0.000000 -0.831470
v 0.382683 0.000000 -0.923880
v 0.195090 0.000000 -0.980785
v 0.000000 0.237997 -2.743377
v -0.535206 0.237997 -2.690664
v -1.049845 0.237997 -2.534550
v -1.524139 0.237997 -2.281034
v -1.939861 0.237997 -1.939861
v -2.281034 0.237997 -1.524139
v -2.534550 0.237997 -1.049845
v -2.690664 0.237997 -0.535206
v -2.743377 0.237997 0.000000
v -2.690664 0.237997 0.535206
v -2.534550 0.237997 1.049845
v -2.281034 0.237997 1.524139
v -1.939861 0.237997 1.939861
v -1.524139 0.237997 2.281034
v -1.049845 0.237997 2.534550
v -0.535206 0.237997 2.690664
v 0.000000 0.237997 2.743377
v 0.535206 0.237997 2.690664
v 1.049845 0.237997 2.534550
v 1.524139 0.237997 2.281034
v 1.939861 0.237997 1.939861
v 2.281034 0.237997 1.524139
v 2.534550 0.237997 1.049845
v 2.690664 0.237997 0.535206
v 2.743377 0.237997 0.000000
v 2.690664 0.237997 -0.535206
v 2.534550 0.237997 -1.049845
v 2.281034 0.237997 -1.524139
v 1.939861 0.237997 -1.939861
v 1.524139 0.237997 -2.281034
v 1.049845 0.237997 -2.534550
v 0.535206 0.237997 -2.690664
vn 0.1199 0.9907 0.0641
vn -0.0862 0.9907 -0.1051
vn 0.1301 0.9907 0.0395
vn -0.1051 0.9907 -0.0862
vn 0.1352 0.9907 0.0133
vn -0.1199 0.9907 -0.0641
vn 0.1352 0.9907 -0.0133
vn -0.1301 0.9907 -0.0395
vn 0.1301 0.9907 -0.0395
vn -0.1352 0.9907 -0.0133
vn 0.1199 0.9907 -0.0641
vn -0.1352 0.9907 0.0133
vn 0.1051 0.9907 -0.0862
vn -0.1301 0.9907 0.0395
vn 0.0862 0.9907 -0.1051
vn -0.1199 0.9907 0.0641
vn 0.0641 0.9907 -0.1199
vn 0.0133 0.9907 0.1352
vn -0.1051 0.9907 0.0862
vn 0.0395 0.9907 -0.1301
vn 0.0395 0.9907 0.1301
vn -0.0862 0.9907 0.1051
vn 0.0133 0.9907 -0.1352
vn 0.0641 0.9907 0.1199
vn -0.0641 0.9907 0.1199
vn -0.0133 0.9907 -0.1352
vn 0.0862 0.9907 0.1051
vn -0.0395 0.9907 0.1301
vn -0.0395 0.9907 -0.1301
vn 0.1051 0.9907 0.0862
vn -0.0133 0.9907 0.1352
vn -0.0641 0.9907 -0.1199
vn -0.0000 1.0000 -0.0000
vt 0.000000 0.000000
s 0
f 7/1/1 6/1/1 38/1/1 39/1/1
f 21/1/2 20/1/2 52/1/2 53/1/2
f 8/1/3 7/1/3 39/1/3 40/1/3
f 22/1/4 21/1/4 53/1/4 54/1/4
f 9/1/5 8/1/5 40/1/5 41/1/5
f 23/1/6 22/1/6 54/1/6 55/1/6
f 10/1/7 9/1/7 41/1/7 42/1/7
f 24/1/8 23/1/8 55/1/8 56/1/8
f 11/1/9 10/1/9 42/1/9 43/1/9
f 25/1/10 24/1/10 56/1/10 57/1/10
f 12/1/11 11/1/11 43/1/11 44/1/11
f 26/1/12 25/1/12 57/1/12 58/1/12
f 13/1/13 12/1/13 44/1/13 45/1/13
f 27/1/14 26/1/14 58/1/14 59/1/14
f 14/1/15 13/1/15 45/1/15 46/1/15
f 28/1/16 27/1/16 59/1/16 60/1/16
f 15/1/17 14/1/17 46/1/17 47/1/17
f 2/1/18 1/1/18 33/1/18 34/1/18
f 29/1/19 28/1/19 60/1/19 61/1/19
f 16/1/20 15/1/20 47/1/20 48/1/20
f 3/1/21 2/1/21 34/1/21 35/1/21
f 30/1/22 29/1/22 61/1/22 62/1/22
f 17/1/23 16/1/23 48/1/23 49/1/23
f 4/1/24 3/1/24 35/1/24 36/1/24
f 31/1/25 30/1/25 62/1/25 63/1/25
f 18/1/26 17/1/26 49/1/26 50/1/26
f 5/1/27 4/1/27 36/1/27 37/1/27
f 32/1/28 31/1/28 63/1/28 64/1/28
f 19/1/29 18/1/29 50/1/29 51/1/29
f 6/1/30 5/1/30 37/1/30 38/1/30
f 1/1/31 32/1/31 64/1/31 33/1/31
f 20/1/32 19/1/32 51/1/32 52/1/32
f 2/1/33 3/1/33 4/1/33 5/1/33 6/1/33 7/1/33 8/1/33 9/1/33 10/1/33 11/1/33 12/1/33 13/1/33 14/1/33 15/1/33 16/1/33 17/1/33 18/1/33 19/1/33 20/1/33 21/1/33 22/1/33 23/1/33 24/1/33 25/1/33 26/1/33 27/1/33 28/1/33 29/1/33 30/1/33 31/1/33 32/1/33 1/1/33
