# Blender 4.2.2 LTS
# www.blender.org
mtllib tenedor.mtl
o Plano
v -1.000000 -0.017664 1.000000
v 1.000000 0.014754 1.008965
v -1.000000 -0.017664 -0.405202
v 1.000000 0.014754 -0.396237
v 0.553517 0.014754 1.000000
v 0.553517 0.014754 -0.405202
v 0.000132 0.014754 -0.405202
v 0.000132 0.014754 1.000000
v -0.523582 0.014754 -0.405202
v -0.523581 0.014754 1.000000
v -1.000000 -0.017664 0.205441
v 1.000000 0.014754 0.214406
v 0.553517 0.014754 0.205441
v 0.000132 0.014754 0.205441
v -0.523582 0.014754 0.205441
v -1.000000 -0.017664 0.611069
v 1.000000 0.014754 0.620034
v 0.553517 0.014754 0.611069
v 0.000132 0.014754 0.611069
v -0.523582 0.014754 0.611069
v 1.000000 0.014754 -0.693636
v -1.000000 -0.017664 -0.702601
v 0.553517 0.014754 -0.702601
v 0.000132 0.014754 -0.702601
v -0.523582 0.014754 -0.702601
v 1.000000 0.014754 -0.096783
v 0.553517 0.014754 -0.105748
v 0.000132 0.014754 -0.105748
v -0.523582 0.014754 -0.105748
v -1.000000 -0.017664 -0.105748
v -2.244300 -0.093151 -0.053924
v -2.244300 -0.093151 -0.697116
v -2.244300 -0.093151 0.616554
v -2.244300 -0.093151 0.257265
v -2.244300 -0.093151 -0.399717
v -2.244300 -0.093151 1.005485
v -4.655007 0.706246 -0.018585
v -4.655007 0.706246 -0.632460
v -4.655007 0.706246 0.731644
v -4.655007 0.706246 0.125330
v -4.655007 0.706246 -0.468292
v -4.655007 0.706246 0.886477
v 16.902920 -0.156539 1.090697
v 16.902920 -0.156539 -0.314505
v 16.902920 -0.156539 0.296138
v 16.902920 -0.156539 0.701765
v 16.902920 -0.156539 -0.611904
v 16.902920 -0.156539 -0.015051
v 1.468526 0.520334 0.289614
v 1.468526 0.520334 0.150018
v 1.468526 0.520334 0.423464
v 1.468526 0.520334 0.042922
v 1.468526 0.520334 -0.060134
v 1.468526 0.520334 -0.162484
vn -0.0000 1.0000 -0.0000
vn -0.0679 0.9977 -0.0000
vn -0.0606 0.9982 -0.0000
vn 0.3147 0.9492 -0.0000
vn 0.0438 0.9990 -0.0000
vn -0.7335 0.6797 -0.0000
vt 0.776759 0.552874
vt 1.000000 0.552874
vt 1.000000 0.702601
vt 0.776759 0.702601
vt 0.500066 0.552874
vt 0.500066 0.702601
vt 0.238209 0.552874
vt 0.238209 0.702601
vt 0.000000 0.552874
vt 0.000000 0.702601
vt 0.000000 0.194466
vt 0.238209 0.194466
vt 0.238209 0.397280
vt 0.000000 0.397280
vt 0.500066 0.194466
vt 0.500066 0.397280
vt 0.776759 0.194466
vt 0.776759 0.397280
vt 1.000000 0.194466
vt 1.000000 0.397280
vt 0.776759 0.000000
vt 1.000000 0.000000
vt 0.500066 0.000000
vt 0.238209 0.000000
vt 0.000000 0.000000
vt 0.238209 0.851301
vt 0.000000 0.851301
vt 0.500066 0.851301
vt 0.776759 0.851301
vt 1.000000 0.851301
s 0
f 27/1/1 26/2/1 4/3/1 6/4/1
f 28/5/1 27/1/1 6/4/1 7/6/1
f 29/7/1 28/5/1 7/6/1 9/8/1
f 30/9/2 29/7/2 9/8/2 3/10/2
f 16/11/2 20/12/2 15/13/2 11/14/2
f 20/12/1 19/15/1 14/16/1 15/13/1
f 19/15/1 18/17/1 13/18/1 14/16/1
f 18/17/1 17/19/1 12/20/1 13/18/1
f 5/21/1 2/22/1 17/19/1 18/17/1
f 8/23/1 5/21/1 18/17/1 19/15/1
f 10/24/1 8/23/1 19/15/1 20/12/1
f 1/25/2 10/24/2 20/12/2 16/11/2
f 3/10/2 9/8/2 25/26/2 22/27/2
f 9/8/1 7/6/1 24/28/1 25/26/1
f 7/6/1 6/4/1 23/29/1 24/28/1
f 6/4/1 4/3/1 21/30/1 23/29/1
f 11/14/2 15/13/2 29/7/2 30/9/2
f 15/13/1 14/16/1 28/5/1 29/7/1
f 14/16/1 13/18/1 27/1/1 28/5/1
f 13/18/1 12/20/1 26/2/1 27/1/1
f 1/25/3 16/11/3 33/11/3 36/25/3
f 3/10/3 22/27/3 32/27/3 35/10/3
f 11/14/3 30/9/3 31/9/3 34/14/3
f 16/11/3 11/14/3 34/14/3 33/11/3
f 30/9/3 3/10/3 35/10/3 31/9/3
f 36/25/4 33/11/4 39/11/4 42/25/4
f 34/14/4 31/9/4 37/9/4 40/14/4
f 35/10/4 32/27/4 38/27/4 41/10/4
f 50/20/5 49/19/5 46/19/5 45/20/5
f 49/19/5 51/22/5 43/22/5 46/19/5
f 52/2/5 50/20/5 45/20/5 48/2/5
f 53/3/5 52/2/5 48/2/5 44/3/5
f 54/30/5 53/3/5 44/3/5 47/30/5
f 21/30/6 4/3/6 53/3/6 54/30/6
f 4/3/6 26/2/6 52/2/6 53/3/6
f 26/2/6 12/20/6 50/20/6 52/2/6
f 17/19/6 2/22/6 51/22/6 49/19/6
f 12/20/6 17/19/6 49/19/6 50/20/6
